<?xml version="1.0" encoding="utf-8"?>
<!-- Generator: Adobe Illustrator 15.0.0, SVG Export Plug-In . SVG Version: 6.00 Build 0)  -->
<!DOCTYPE svg PUBLIC "-//W3C//DTD SVG 1.1//EN" "http://www.w3.org/Graphics/SVG/1.1/DTD/svg11.dtd">
<svg version="1.1" id="Capa_1" xmlns="http://www.w3.org/2000/svg" xmlns:xlink="http://www.w3.org/1999/xlink" x="0px" y="0px"
	 width="792px" height="1224px" viewBox="0 0 792 1224" enable-background="new 0 0 792 1224" xml:space="preserve">
<path fill="#B2B2B2" d="M425.5,294.7c-174.964,0-316.8,141.836-316.8,316.8s141.836,316.8,316.8,316.8s316.8-141.836,316.8-316.8
	S600.464,294.7,425.5,294.7z M502.406,487.995L399.308,615.312l98.986,131.36c5.43,7.205,3.998,17.578-3.278,23.062l-39.537,29.793
	c-7.328,5.522-17.605,4.049-23.071-3.205L308.216,631.515c-8.92-10.683-10.14-22.286,0.209-35.065l129.867-160.373
	c5.678-7.011,16.089-8.132,23.169-2.398l38.474,31.155C507.065,470.608,508.122,480.937,502.406,487.995z"/>
</svg>
